<?xml version="1.0" encoding="utf-8"?>
<!-- Generator: Adobe Illustrator 16.0.0, SVG Export Plug-In . SVG Version: 6.00 Build 0)  -->
<!DOCTYPE svg PUBLIC "-//W3C//DTD SVG 1.1//EN" "http://www.w3.org/Graphics/SVG/1.1/DTD/svg11.dtd">
<svg version="1.1" id="Layer_1" xmlns="http://www.w3.org/2000/svg" xmlns:xlink="http://www.w3.org/1999/xlink" x="0px" y="0px"
	 width="538px" height="535px" viewBox="0 0 538 535" enable-background="new 0 0 538 535" xml:space="preserve">
<g id="seal_circle">
	<g>
		<g>
			<g>
				<g>
					<path fill="#ED1C24" d="M521.979,265.643c0.024,2.127,0.019,1.531,0.021,1.857
						C521.964,263.574,521.977,265.742,521.979,265.643z"/>
					<polygon fill="#ED1C24" points="519.082,227.018 519.235,227.689 518.177,222.068 					"/>
					<path fill="#ED1C24" d="M511.098,191.636c0.615,3.397,3.729,12.624,4.858,19.009l0.182,1.053l0.807,2.809
						c-0.436-1.917-0.901-3.977-1.376-6.073c-0.494-2.092-0.918-4.24-1.54-6.262C512.895,198.097,511.84,194.305,511.098,191.636z"
						/>
					<path fill="#ED1C24" d="M505.479,173.043c0.28,1.179-1.598-3.889,1.55,4.262c-0.137-0.417-0.177-0.54-0.254-0.782
						C506.5,175.786,506.122,174.771,505.479,173.043z"/>
					<path fill="#ED1C24" d="M506.774,176.523C508.13,180.115,506.008,174.125,506.774,176.523L506.774,176.523z"/>
					<path fill="#ED1C24" d="M500.047,160.114l2.146,4.585c-0.329-1.009-2.091-5.165-1.361-3.655
						C498.703,156.299,499.025,157.333,500.047,160.114z"/>
					<path fill="#ED1C24" d="M497.772,155.886c0,0,0.306,0.58,0.61,1.159c0.28,0.592,0.561,1.185,0.561,1.185
						C498.798,157.792,498.555,157.138,497.772,155.886z"/>
					<path fill="#ED1C24" d="M501.285,163.271l-2.342-5.041c0.226,0.704,0.127,0.834,1.063,2.319
						C499.706,160.188,500.262,161.14,501.285,163.271z"/>
					<path fill="#ED1C24" d="M502.479,166.182c0.533,1.314,1.138,2.822,1.301,3.443c0.165,0.62,0.063,0.279-0.998-2.022
						c1.842,4.464,2.58,6.388,2.537,6.021c-0.031-0.179-0.279-0.922-0.736-2.185C504.121,170.177,503.495,168.377,502.479,166.182z"
						/>
					<path fill="#ED1C24" d="M510.204,189.975c0,0,0.277,0.902,0.555,1.803c0.148,0.448,0.248,0.911,0.34,1.252
						c0.089,0.343,0.146,0.572,0.146,0.572l0.975,3.115c-0.242-0.778-0.713-2.535-1.124-4.066
						C510.656,191.127,510.204,189.852,510.204,189.975z"/>
					<path fill="#ED1C24" d="M485.685,132.008c-0.271-0.205,0.621,1.623,0.69,2.023c0,0,0.131,0.194,0.326,0.486
						c0.192,0.293,0.467,0.674,0.699,1.08c0.482,0.801,0.967,1.603,0.967,1.603C487.556,135.444,485.657,132.327,485.685,132.008z"
						/>
					<path fill="#ED1C24" d="M486.375,134.031l-3.132-4.643C485.864,133.645,486.43,134.369,486.375,134.031z"/>
					<path fill="#ED1C24" d="M496.906,155.308c0,0,1.148,1.987,2.107,4.068c0.998,2.064,1.996,4.127,1.996,4.127
						s-1.177-2.467-2.354-4.935c-0.564-1.245-1.247-2.432-1.73-3.335c-0.49-0.901-0.815-1.501-0.815-1.501L496.906,155.308z"/>
					<path fill="#ED1C24" d="M473.927,114.073c0,0,0.143,0.142,0.334,0.372c0.192,0.229,0.45,0.534,0.707,0.839
						c0.515,0.611,1.027,1.223,1.027,1.223s-0.897-1.101-1.796-2.202c-0.953-1.057-1.907-2.114-1.907-2.114L473.927,114.073z"/>
					<path fill="#ED1C24" d="M465.198,102.822c1.732,1.628-1.694-2.809,0.04-1.004c-2.529-2.943-4.799-5.364-6.944-7.436
						C460.481,96.669,462.573,99.334,465.198,102.822z"/>
					<path fill="#ED1C24" d="M454.651,90.944c1.125,1.109,2.333,2.221,3.643,3.439C457.104,93.193,455.908,92.045,454.651,90.944z"
						/>
					<path fill="#ED1C24" d="M478.085,121.366c-0.181-0.402-0.481-1.209-2.19-3.856l0.941,2.038
						C477.217,120.102,477.647,120.729,478.085,121.366z"/>
					<path fill="#ED1C24" d="M476.87,119.619l-0.034-0.071c-1.351-1.975-2.287-3.344-2.688-3.931
						C474.49,116.122,475.311,117.327,476.87,119.619z"/>
					<path fill="#ED1C24" d="M478.399,121.825c-0.115-0.169-0.201-0.293-0.314-0.459
						C478.176,121.562,478.238,121.674,478.399,121.825z"/>
					<path fill="#ED1C24" d="M490.403,142.2c-1.754-2.782-5.29-8.621-2.274-2.726C489.476,141.41,487.754,138.029,490.403,142.2z"/>
					<path fill="#ED1C24" d="M479.575,124.332c0,0,0.208,0.308,0.519,0.769c0.29,0.476,0.676,1.11,1.062,1.744
						c0.771,1.269,1.542,2.537,1.542,2.537c0.017-0.148-0.438-1.132,0.506,0.196c0,0-0.896-1.319-1.793-2.639
						c-0.449-0.659-0.898-1.317-1.235-1.812C479.815,124.651,479.575,124.332,479.575,124.332z"/>
					<polygon fill="#ED1C24" points="477.819,122.013 479.575,124.332 478.346,122.507 					"/>
					<path fill="#ED1C24" d="M461.12,98.878c-0.901-0.922-1.81-1.917-2.751-2.984c-0.979-1.033-2.01-2.122-3.104-3.276
						c1.112,1.294,2.313,2.542,3.403,3.881c1.104,1.325,2.204,2.645,3.274,3.93C462.352,100.698,463.484,101.665,461.12,98.878z"/>
					<path fill="#ED1C24" d="M469.009,108.789c-0.114-0.137-0.26-0.312-0.366-0.44C468.829,108.649,468.992,108.88,469.009,108.789z
						"/>
					<path fill="#ED1C24" d="M432.79,70.804c0.108,0.142,0.203,0.265,0.312,0.41c0.051,0.001,0.09-0.003,0.146,0.006L432.79,70.804z
						"/>
					<path fill="#ED1C24" d="M462.251,100.918c1.588,2.008,2.655,3.106,3.695,4.137c-1.268-1.435-2.598-2.967-4.003-4.627
						C461.759,100.307,461.703,100.304,462.251,100.918z"/>
					<path fill="#ED1C24" d="M448.471,84.739c0.445,0.501,0.921,1.035,1.417,1.592c0.48,0.573,0.981,1.17,1.495,1.782
						c-0.396-0.525-0.981-1.343-1.57-2.013C449.224,85.432,448.684,84.86,448.471,84.739z"/>
					<path fill="#ED1C24" d="M468.209,107.591c0.082,0.098,0.156,0.187,0.246,0.293
						C468.016,107.161,468.045,107.271,468.209,107.591z"/>
					<path fill="#ED1C24" d="M468.209,107.591c-0.849-1.01-1.554-1.772-2.263-2.535c0.978,1.212,1.888,2.335,2.695,3.292
						C468.473,108.078,468.315,107.798,468.209,107.591z"/>
					<path fill="#ED1C24" d="M423.239,67.625c0.335-0.068,1.886,0.833,3.878,2.258c0.99,0.718,2.111,1.54,3.208,2.478
						c1.075,0.964,2.16,2,3.163,3.042c4.521,3.43,2.769-0.153-0.386-4.189c-0.294,0.076-0.328,0.11-5.127-3.31
						c0.704,0.769,3.199,2.868,4.83,4.625c1.672,1.711,2.67,2.847,0.668,1.389c-1.488-1.241-2.539-2.116-3.319-2.768
						c-0.792-0.639-1.292-1.085-1.686-1.468c-0.785-0.765-1.138-1.272-2.531-2.556c1.059,1.251-1.019-0.107-3.266-1.533
						c-2.214-1.475-4.771-2.782-4.357-1.921c0,0,0.356,0.228,0.894,0.568c0.54,0.337,1.254,0.793,1.937,1.294
						c1.383,0.979,2.765,1.958,2.765,1.958C423.918,67.685,421.843,66.361,423.239,67.625z"/>
					<path fill="#ED1C24" d="M441.442,78.738l1.771,1.652c-0.971-0.985-1.74-1.9-2.643-2.836c-0.898-0.94-1.854-1.982-3.093-3.343
						c-3.171-2.519-3.916-2.931-4.229-2.991c0,0,2.222,1.999,4.442,3.997c1.109,0.999,2.22,1.997,3.053,2.746
						c0.815,0.766,1.337,1.302,1.337,1.302L441.442,78.738z"/>
					<path fill="#ED1C24" d="M450.936,88.059c-0.409-0.26-0.964-0.722-1.56-1.194c-0.607-0.459-1.244-0.94-1.745-1.319
						c-1.018-0.739-1.551-0.993-0.462,0.43c0.645,0.607,1.183,1.116,1.64,1.547c0.447,0.441,0.812,0.802,1.12,1.106
						c0.621,0.599,1.024,0.948,1.37,1.228c0.692,0.561,1.156,0.847,2.677,2.325c-7.901-8.288,2.437,2.229-3.019-4.02
						c1.595,1.595,2.992,3.065,4.309,4.455c-1.363-1.553-2.669-3.064-3.883-4.505c0.062,0.085,0.106,0.145,0.158,0.214l0.038,0.039
						c-0.003,0.002-0.012-0.005-0.014-0.003c0.294,0.406,0.379,0.55,0.023,0.117c-0.03-0.023-0.127-0.125-0.17-0.169
						c-0.101-0.01-0.287-0.125-0.482-0.253c-2.192-2.506-0.267-0.472,0.482,0.253c0.043,0.012,0.119,0.062,0.146,0.052
						c-0.007-0.01-0.016-0.022-0.023-0.035c0,0-0.501-0.516-1.253-1.29c-0.748-0.776-1.826-1.731-2.868-2.723
						c-2.103-1.962-4.205-3.925-4.205-3.925c0.847,0.877,1.816,1.845,3.062,3.061c0.626,0.606,1.316,1.276,2.096,2.03
						c0.39,0.375,0.802,0.771,1.237,1.191C450.028,87.109,450.47,87.571,450.936,88.059z"/>
					<path fill="#ED1C24" d="M484.42,134.609c-0.165-0.312-0.136-0.313-0.129-0.349C483.858,133.663,483.684,133.443,484.42,134.609
						z"/>
					<path fill="#ED1C24" d="M482.074,130.549c0.486,0.671,0.977,1.18,2.393,3.472c1.167,2.025-0.146,0.076-0.176,0.24
						c0.969,1.306,3.193,4.707,0.667,0.282l-0.472-0.656c-2.366-3.93-5.146-9.182-4.674-8.533
						C480.256,126.673,480.695,127.805,482.074,130.549z"/>
					<path fill="#ED1C24" d="M467.238,108.445c0,0-0.375-0.462-0.938-1.156c-0.56-0.695-1.302-1.626-2.111-2.499
						c-1.588-1.773-3.175-3.547-3.175-3.547l2.866,3.919l0.011-0.329c0.878,1.028,1.454,1.772,1.867,2.288
						c0.419,0.512,0.678,0.794,0.853,0.955C466.958,108.397,466.967,108.231,467.238,108.445z"/>
					<path fill="#ED1C24" d="M432.142,69.867l1.316,0.409c0,0-1.145-0.796-2.368-1.491c-1.206-0.712-2.412-1.425-2.412-1.425
						s0.867,0.625,1.735,1.249c0.434,0.313,0.867,0.626,1.192,0.86C431.934,69.701,432.142,69.867,432.142,69.867z"/>
					<path fill="#ED1C24" d="M422.404,62.066l0.676-0.13c0,0-0.173-0.113-0.432-0.284c-0.269-0.16-0.623-0.372-0.979-0.584
						c-0.712-0.424-1.425-0.848-1.425-0.848L422.404,62.066z"/>
					<path fill="#ED1C24" d="M62.064,390.015l1.861,1.967C63.121,391.008,62.549,390.413,62.064,390.015z"/>
					<path fill="#ED1C24" d="M52.822,373.229l-1.123,0.024C52.614,373.801,53.151,373.939,52.822,373.229z"/>
					<path fill="#ED1C24" d="M131.901,45.911c-4.13,1.247-9.131,2.25-7.936,3.127l1.833,0.437
						C128.149,47.73,130.138,46.674,131.901,45.911z"/>
					<path fill="#ED1C24" d="M21.335,217.806c0.245-0.344,0.5-0.702,0.752-1.056c-0.393-1.088-0.763-2.112-1.093-3.027
						C21.103,214.958,21.138,216.336,21.335,217.806z"/>
					<path fill="#ED1C24" d="M28.304,222.021l-2.032,4.911C26.878,225.846,27.548,224.268,28.304,222.021z"/>
					<path fill="#ED1C24" d="M135.405,462.396c0,0,0.99-0.109,1.98-0.22c0.992-0.118,2.002-0.282,2.002-0.282
						c-1.014-0.595-1.671-0.963-2.144-1.109c-0.472-0.147-0.748-0.089-0.935,0.08C135.935,461.2,135.921,461.975,135.405,462.396z"
						/>
					<path fill="#ED1C24" d="M305.713,12.287c-3.484-0.84-6.287-1.389-8.76-1.783C301.169,11.629,304.484,12.86,305.713,12.287z"/>
					<path fill="#ED1C24" d="M37.166,395.141c1.228,1.358,2.001,1.792,2.417,1.498C38.349,395.238,37.468,394.54,37.166,395.141z"/>
					<path fill="#ED1C24" d="M286.673,9.495c0.621,0.15,1.234,0.252,1.867,0.389c1.308,0.04,2.619,0.088,4.001,0.171
						c1.381,0.092,2.837,0.164,4.412,0.449c-1.551-0.454-3.242-0.716-4.98-0.918C290.232,9.395,288.439,9.33,286.673,9.495z"/>
					<path fill="#ED1C24" d="M462.042,397.704c0.278-0.135,0.505-0.369,0.79-0.472C462.475,396.896,462.264,397.199,462.042,397.704
						z"/>
					<path fill="#ED1C24" d="M536.309,303.434c0.065,1.241-0.203,3.219-0.407,5.089C536.281,307.655,536.47,306.122,536.309,303.434
						z"/>
					<path fill="#ED1C24" d="M379.943,35.2C382.341,36.349,380.365,35.295,379.943,35.2L379.943,35.2z"/>
					<path fill="#ED1C24" d="M390.109,43.555c-0.531-0.192-0.952-0.303-1.084-0.195C389.293,43.315,389.667,43.394,390.109,43.555z"
						/>
					<path fill="#ED1C24" d="M260.297,14.867c-0.077,0.001-0.138,0.002-0.226,0.003C260.854,15.046,260.719,15.012,260.297,14.867z"
						/>
					<path fill="#ED1C24" d="M383.354,37.325c-0.846-0.54-1.826-1.149-2.914-1.771C380.906,35.851,381.786,36.403,383.354,37.325z"
						/>
					<path fill="#ED1C24" d="M383.021,36.781c0.797,0.453,1.426,0.81,2.021,1.149C385.393,37.986,385.162,37.782,383.021,36.781z"/>
					<path fill="#ED1C24" d="M376.579,33.656c1.38,0.638,2.649,1.271,3.86,1.898c-0.451-0.266-0.633-0.395-0.496-0.355
						C379.234,34.875,378.236,34.417,376.579,33.656z"/>
					<path fill="#ED1C24" d="M301.021,509.22c0.177,0.07,0.375,0.105,0.571,0.207C303.939,507.85,302.863,508.196,301.021,509.22z"
						/>
					<path fill="#ED1C24" d="M88.643,100.141c0.07-0.098,0.085-0.17,0.145-0.262c-0.094,0.076-0.21,0.171-0.295,0.24L88.643,100.141
						z"/>
					<path fill="#ED1C24" d="M83.509,107.76c1.097-4.171,2.652-5.795,4.984-7.641c0,0-1.307-0.174-2.615-0.349
						c-0.659-0.084-1.318-0.169-1.812-0.232c-0.486-0.053-0.811-0.088-0.811-0.088s0.047,2.086,0.094,4.172
						C83.429,105.691,83.509,107.76,83.509,107.76z"/>
					<path fill="#ED1C24" d="M90.094,426.125l-2.512-6.028c3.842,1.634,6.396,3.593,7.809,4.39c0.697,0.402,1.156,0.47,1.286,0.093
						c0.128-0.374,0-1.257-0.383-2.815c-1.545,1.101-3.347,0.577-5.288-0.769c-1.929-1.355-4.065-3.463-5.975-5.759
						c-1.961-2.257-3.926-4.51-5.808-5.974c-1.792-1.528-3.523-2.267-5.138-1.373l-1.18-4.205c0.639,0.988,1.101,0.894,1.729,1.867
						c-1.87-8.348-7.814-1.814-12.739-11.138c-1.479-3.369-1.795-6.098,0.167-4.399l-5.641-6.063
						c-0.551-1.041-0.441-1.605-0.106-1.625c0.325-0.014,0.934,0.481,1.475,1.515c0,0-0.436-0.636-1.046-1.615
						c-0.585-0.993-1.365-2.319-2.145-3.646c-1.565-2.658-3.13-5.315-3.13-5.315l0.228-0.01c-1.832-1.051-4.974-4.013-6.479-5.506
						c-0.428-3.278,1.336,1.143,1.785,0.048c0,0-1.109-1.391-2.217-2.781c-0.556-0.699-1.111-1.399-1.528-1.926
						c-0.407-0.531-0.655-0.896-0.655-0.896c0.297-1.65,1.374-1.302,2.586-0.013c1.28,1.266,2.719,3.459,3.599,5.647
						c1.811-4.313,0.806-5.347-0.896-7.153c-1.59-1.825-3.945-4.439-4.612-11.477c0,0,0.187,0.355,0.467,0.892
						c0.305,0.524,0.712,1.225,1.119,1.924c0.812,1.395,1.625,2.787,1.625,2.787c0.51-1.302,0.693-2.521,0.672-3.736
						s-0.265-2.421-0.48-3.737c-0.481-2.608-1.264-5.521-1.347-9.198c-0.302,0.969-0.514,4.76-1.159,7.6
						c-0.646,2.827-1.717,4.689-3.744,1.476c-0.194-2.148-0.928-4.771-3.484-8.17c2.263-0.741,0.596-4.277-0.935-8.909l3.111-0.494
						c-0.59-1.186-1.146-2.021-1.622-2.666c-0.466-0.646-0.91-1.086-1.353-1.458c-0.885-0.744-1.767-1.217-2.813-2.566
						c-1.106-5.795,0.909-7.446,2.637-9.172c-0.66-4.577-1.28-2.851-2.073-1.278c-0.794,1.566-1.761,2.992-3.098-2.436
						c-0.084-1.975-0.291-3.772-0.609-5.507c-0.251-1.742-0.574-3.427-1.017-5.146c-0.863-3.444-2.232-7.037-3.435-11.688
						c0.527-5.58,1.885,0.82,2.55-1.218l-2.774-4.701c-0.05-1.2,0.7-0.852,1.08-0.678c-0.646-2.022-1.293-2.082-2.048-2.429
						c-0.729-0.352-1.454-0.998-1.959-4.268c-0.813-0.42-0.955-1.486-0.772-2.969c0.091-0.74,0.263-1.583,0.472-2.501
						c0.107-0.457,0.22-0.935,0.335-1.427c0.141-0.491,0.287-0.998,0.436-1.518c0.586-2.073,1.156-4.328,1.361-6.574
						c0.223-2.246-0.005-4.489-0.7-6.558c0.931-1.937,1.664,1.061,2.797,0.515c-0.809-5.553-1.067-7.972-1.443-10.14
						c-0.348-2.176-0.682-4.087-1.666-8.851c0,0,0.678-1.878,1.356-3.757c0.313-0.94,0.748-1.858,1.021-2.553
						c0.288-0.692,0.479-1.154,0.479-1.154c-2.987,5.326-4.17-2.246-4.937-9.125c-1.324,1.856-2.488,3.464-3.107,4.577
						c0,0,0.117-2.672,0.233-5.343c0.029-1.346,0.219-2.662,0.296-3.664c0.096-0.999,0.161-1.665,0.161-1.665
						c0.723-1.155,1.369,0.095,2.077,2.012c-0.056-0.747-0.114-1.457-0.191-2.02c1.82-3.458,2.863-1.182,3.738,1.73
						c-0.795,1.122-1.634,2.23-2.453,3.316c1.148,2.875,2.54,5.55,4.189,5.316c-0.196-0.713-0.243-2.03-0.152-3.454
						c0.325,0.742,0.644,1.233,0.959,0.984c0.358-0.284-0.121-1.463-0.397-3.237l3.425-1.638l-1.038-0.804
						c0,0,1.167-3.146,2.333-6.291c0.54-1.578,1.271-3.102,1.742-4.262c0.491-1.153,0.818-1.923,0.818-1.923
						c-0.087-2.485-0.284-4.945-0.435-7.469c-0.056-2.494-0.097-5.061-0.015-7.8c0.041-1.37,0.112-2.783,0.228-4.25
						c0.134-1.461,0.396-2.947,0.675-4.514c0.289-1.563,0.637-3.193,1.059-4.898c0.422-1.706,0.891-3.499,1.595-5.315
						c0.302,4.321,2.745,2.065,4.884,3.223c-2.026,1.392-2.778,4.304-3.527,7.677c-0.354,1.689-0.733,3.494-1.126,5.363
						c-0.366,1.873-0.843,3.768-1.582,5.593c1.541-3.811,2.372-2.555,2.448-1.436c0,0,0.127-0.877,0.317-2.194
						c0.098-0.66,0.211-1.43,0.333-2.254c0.162-0.813,0.333-1.681,0.506-2.549c0.704-3.491,1.407-6.982,1.407-6.982
						c0.866,0.527,1.478-0.025,2.127-1.093c0.658-1.064,1.464-2.603,2.557-4.109c-2.344,0.474-1.89-2.178-0.674-5.691
						c0.306-0.876,0.647-1.81,1.022-2.751c0.411-0.925,0.829-1.869,1.238-2.789c0.81-1.845,1.543-3.616,1.932-5.038
						c1.289,0.279,1.836,2.114-1.545,8.194c3.017-2.793,3.091-5.495,3.167-8.26c0.017-2.782,0.237-5.513,3.152-8.232
						c-0.817,1.506-1.443,2.217-1.214,3.119c0.489-2.014,2.144-5.052,3.639-7.256c1.516-2.194,2.992-3.472,2.822-2.226l-0.884,1.454
						c1.601-2.339,3.544-5.33,5.535-8.554c2.053-3.184,4.323-6.487,6.254-9.675c0.942-1.612,1.99-3.054,2.847-4.469
						c0.875-1.4,1.644-2.71,2.263-3.88c1.229-2.346,1.882-4.118,1.611-4.902c0.359,0.158,1.791,3.432,1.87,4.368
						c0,0,0.07-0.35,0.193-0.961c0.127-0.609,0.348-1.45,0.6-2.479c0.511-2.049,1.218-4.797,1.969-7.566
						c0.711-2.802,1.62-5.485,2.303-7.523c0.693-2.043,1.155-3.404,1.155-3.404c0.259,1.525,2.678,2.04,4.301,3.179
						c1.627,1.136,2.483,2.886-0.188,6.79c1.047-0.862,2.209-1.828,3.512-3.173c1.312-1.338,2.708-3.107,4.472-5.359
						c-1.557,1.013-5.8,0.701-4.15-1.243c3.479-1.448,4.583-2.018,5.81-2.771c0.606-0.379,1.256-0.786,2.215-1.386
						c0.965-0.589,2.233-1.377,4.225-2.334c-2.414,1.44-2.648-3.395,0.789-6.223c-0.15,0.878,2.68,2.56,1.743,3.911
						c0,0,1.444-2.498,2.888-4.996c0.721-1.265,1.543-2.423,2.124-3.341c0.594-0.905,0.99-1.508,0.99-1.508
						c-1.743,2.213,1.551,2.691,4.052,1.976c-0.655,0.075,1.18-1.379,3.43-3.115c2.292-1.681,5.08-3.526,6.136-4.533l-4.197,2.041
						c2.561-1.693,4.269-3.238,5.567-4.714c0.652-0.733,1.186-1.471,1.696-2.161c0.516-0.681,0.98-1.357,1.444-2.035
						c0.93-1.356,1.864-2.721,3.228-4.158c1.373-1.42,3.124-3.002,5.863-4.467c-0.961,1.354-0.932,5.554,4.614,2.78
						c0.395-0.734,1.013-1.949,1.874-3.465c0.864-1.508,1.945-3.366,3.372-5.173c1.407-1.842,3.075-3.791,4.991-5.664
						c0.965-0.922,1.96-1.888,3.068-2.698c1.104-0.818,2.266-1.593,3.478-2.304l2.346-0.011c0,0,1.849-1.112,3.697-2.225
						c0.918-0.576,1.875-1.065,2.587-1.448c0.713-0.381,1.189-0.634,1.189-0.634c-2.077,1.995-5.918,5.893-9.981,9.781
						c-2.057,1.897-4.033,4.089-5.939,5.989c-1.891,1.934-3.674,3.657-5.145,5.072c4.4-1.493,1.664,0.407,7.669-2.878
						c2.529-0.328-2.666,2.964-4.4,3.951c0,0,3.558-1.732,7.117-3.464c1.758-0.907,3.599-1.64,4.958-2.233
						c1.362-0.585,2.271-0.975,2.271-0.975c-0.717-0.726,1.83-2.457,4.433-4.159c2.648-1.585,5.369-3.096,4.797-3.713
						c0,0-0.963,0.523-2.408,1.307c-0.72,0.392-1.56,0.85-2.459,1.339c-0.877,0.536-1.812,1.107-2.748,1.679
						c-3.713,2.288-7.425,4.576-7.425,4.576c-0.739-0.726,0.926-3.028,4.165-5.708c0.809-0.67,1.715-1.364,2.703-2.062
						c0.989-0.695,2.048-1.424,3.219-2.028c2.32-1.26,4.907-2.454,7.61-3.443c2.965-0.394-0.853,3.911-0.389,4.404
						c0.283-0.289,1.02-0.759,1.986-1.302c0.964-0.549,2.159-1.165,3.387-1.656c2.439-1.03,4.879-1.915,5.441-1.876l-4.224,2.521
						c3.084-0.721,5.309-2.151,7.756-3.504c2.45-1.329,5.187-2.389,9.053-2.675c1.28-0.294,3.284-0.378,5.024-0.348
						c1.735,0.008,3.163-0.062,3.264-0.615c-4.579-0.912-7.043-6.746-4.514-8.84c0.479-0.038,4.061-0.323,7.915-0.63
						c0.961-0.063,1.935-0.146,2.887-0.186c0.957-0.008,1.887-0.015,2.745-0.021c1.715,0.001,3.142,0.039,3.938,0.139
						c2.304,0.354,0.816,1.523-0.72,2.693c-1.542,1.168-3.133,2.336-1.197,2.634c0.067-0.484,2.325-1.485,3.282-1.847
						c2.793-0.124-0.885,1.612,4.985,0.292c0.738-1.82,12.16-1.51,2.613-1.795c2.896-0.627,4.468-0.75,6.167-0.841
						c1.702-0.081,3.523-0.214,6.98-0.488c-1.146-0.43,0.319-1.451,2.846-2.461c1.263-0.506,2.789-1.01,4.376-1.441
						c0.793-0.208,1.601-0.431,2.399-0.569c0.798-0.131,1.585-0.237,2.334-0.31c-0.336,0.409,1.031,0.897,1.688,1.115
						c3.061-0.043,5.768-0.042,8.281-0.022c2.514,0.104,4.835,0.291,7.129,0.431c2.292,0.165,4.56,0.257,6.958,0.45
						c2.396,0.244,4.93,0.475,7.767,0.687c0.509,0.213,2.122,0.525,3.306,0.836c1.188,0.297,1.935,0.677,0.748,0.849
						c1.643-0.073,3.182-0.36,6.664,0.032c6.559,2.021-7.759-0.75-2.815,1.33c0.265-0.384,2.536-0.398,5.375-0.299
						c1.415,0.071,2.985,0.079,4.491,0.248c1.511,0.148,2.979,0.29,4.229,0.382c-0.325-0.367-1.196-0.691-2.399-0.976
						c-1.203-0.282-2.732-0.559-4.396-0.651c-3.32-0.253-7.09-0.331-9.592-0.375c0.082-0.881,2.331-1.516,6.09-1.81
						c1.876-0.125,4.143-0.261,6.668-0.133c2.521,0.152,5.33,0.41,8.33,0.772c2.376,0.329,3.807,0.614,4.626,0.916
						c0.825,0.276,1.062,0.474,1.054,0.619c-0.013,0.292-0.99,0.379-0.158,0.455c4.35,1.098,7.49,1.691,9.989,2.047
						c2.468,0.471,4.298,0.677,6.034,0.884c1.736,0.208,3.378,0.42,5.465,0.915c2.087,0.49,4.559,1.465,8.014,2.932
						c5.289,2.845-0.373,1.873,0.646,2.955c-3.729-1.062-6.478-2.199-8.958-3.189c-2.5-0.919-4.696-1.802-7.23-2.51l6.09,2.234
						c-2.465-0.368-7.493-1.529-10.125-2.583c1.127,0.559,3.496,1.36,6.619,2.318c1.564,0.47,3.312,0.995,5.188,1.557
						c1.852,0.635,3.824,1.313,5.863,2.013c2.035,0.71,4.156,1.386,6.244,2.17c2.068,0.835,4.146,1.673,6.17,2.49
						c1.01,0.416,2.007,0.826,2.982,1.228c0.979,0.399,1.932,0.799,2.83,1.255c1.812,0.876,3.512,1.718,5.036,2.504
						c2.346,0.727,6.319,2.196,4.651,1.06l-4.021-1.688c-3.358-2.313,7.89,2.524,2.998-0.07c0.694,0.249,1.399,0.5,2.117,0.757
						c0.71,0.274,1.42,0.579,2.149,0.879c1.455,0.606,2.963,1.249,4.524,1.952c1.562,0.705,3.183,1.464,4.853,2.321
						c1.631,0.929,3.316,1.946,5.06,3.074l0.882,1.58c-0.019-0.312-4.393-3.209-6.548-4.112c1.598,0.668,4.179,2.558,6.846,4.345
						c1.329,0.902,2.693,1.762,3.94,2.494c1.227,0.768,2.366,1.363,3.312,1.63c0,0-1.134-0.921-2.268-1.842
						c-0.562-0.471-1.141-0.918-1.584-1.234c-0.439-0.326-0.732-0.542-0.732-0.542c1.349,0.624,2.731,1.361,4.172,2.136
						c1.444,0.769,2.947,1.575,4.477,2.428c1.517,0.87,3.106,1.715,4.603,2.745c1.499,1.026,2.989,2.107,4.438,3.247
						c-2.237-2.653-1.411-0.931-5.116-4.812c3.122,3.522-15.755-10.444-10.351-5.302c-1.983-1.905-3.935-3.194-6.061-4.589
						c-2.132-1.39-4.424-2.911-7.315-5.004c0.047,0.383,1.93,1.707-3.488-1.347c-0.29-0.048-0.93-0.252-1.331-0.387
						c-0.164-0.099-0.222-0.133-0.36-0.218c0.104,0.071,0.182,0.124,0.285,0.194c-0.259-0.083-0.284-0.084,0.107,0.072
						c1.244,0.817,2.227,1.526,2.574,1.91c-1.537-0.372-4.439-1.784-7.432-3.075c-3.012-1.248-6.033-2.545-7.62-3.058
						c-3.264-1.687,1.546,0.291-0.128-0.879c0,0-1.188-0.386-2.373-0.772c-1.207-0.33-2.414-0.661-2.414-0.661
						c-0.158-0.872-8.584-4.881-0.378-1.999l-7.229-3.009c-1.02-0.564-2.184-1.056-3.387-1.564
						c-1.205-0.507-2.459-1.011-3.701-1.484c-2.49-0.927-4.906-1.817-6.832-2.22c-3.496-1.246-9.201-1.8-5.938-1.504
						c0,0-0.745-0.189-1.862-0.474c-1.121-0.273-2.602-0.684-4.103-1.013c-3.015-0.603-6.026-1.205-6.026-1.205l-0.062-0.237
						c-5.854-1.634-12.09-2.29-18.447-3.348c-6.42-0.694-12.98-1.77-19.847-3.113c-2.048-0.057-4.126-0.126-6.546-0.241
						c-2.422-0.023-5.184-0.122-8.601-0.396l-1.323-0.917c-2.634-0.032-6.586-0.146-10.178-0.269
						c-3.589-0.105-6.813-0.185-7.915,0.414c-1.455-0.523-3.793-0.729-6.629-0.737c-1.418-0.004-2.96,0.041-4.576,0.12
						c-1.613,0.114-3.293,0.342-5.003,0.548c-1.708,0.229-3.443,0.46-5.158,0.69c-1.712,0.245-3.41,0.444-5.017,0.781
						c-3.225,0.601-6.179,1.119-8.507,1.375l-0.102,1.314c-0.79,0.127-1.576,0.254-2.361,0.38c-0.776,0.177-1.551,0.354-2.331,0.531
						c-1.557,0.368-3.123,0.761-4.731,1.185c-1.604,0.438-3.253,0.889-4.981,1.361c-1.712,0.526-3.478,1.162-5.356,1.798
						l0.786,1.013c-3.14,1.393-7.44,2.206-12.142,3.5c-2.365,0.601-4.862,1.214-7.411,1.894c-2.521,0.755-5.063,1.655-7.579,2.635
						c0.507-0.707,3.123-1.562,5.035-1.983c-3.262,0.489-6.465,1.457-9.59,2.671c-3.088,1.306-6.055,2.957-8.983,4.564
						c-2.955,1.557-5.706,3.417-8.509,4.935c-2.793,1.54-5.611,2.799-8.408,3.802c-2.311,1.848-4.229,2.734-6.193,3.442
						c0.235-0.134,0.436-0.275,0.596-0.413c-0.27,0.131-0.659,0.346-1.057,0.571c-1.258,0.41-2.534,0.874-3.871,1.458
						c1.22-0.36,2.344-0.77,3.31-1.139c-1.951,1.128-4.728,3.143-7.388,5.188l-2.025-0.484c-0.224,0.157-0.404,0.284-0.637,0.447
						c-3.116,1.288-1.852,1.988,0.254,1.989c-1.309,1.069-2.374,2.241-3.153,3.208c-1.779-0.237-3.473,1.183-5.261,2.653
						c-0.896,0.736-1.816,1.484-2.799,2.047c-0.964,0.589-1.97,1.019-3.099,1.045c-0.506,1.199-3.693,3.952-6.701,6.808
						c-2.892,2.998-5.584,6.104-5.325,7.722c-0.326-0.198-1.185,0.306,0.162-0.875c-3.068,2.107-5.961,4.451-7.826,7.301
						l-2.569-0.399c0,0-0.995,1.88-1.99,3.761c-0.908,1.937-1.816,3.875-1.816,3.875c-4.3,2.637-6.313,3.618-4.045-1.013
						c-1.625,2.558-2.813,4.289-3.739,5.626c-0.887,1.372-1.555,2.307-2.187,3.2c-1.245,1.795-2.422,3.386-4.681,7.997l-0.772-1.264
						c-2.216,2.844-4.28,8.466-6.549,9.445c-1.75,1.187-4.06,3.822-6.836,7.29c-0.685,0.874-1.427,1.78-2.135,2.771
						c-0.688,1.005-1.404,2.052-2.144,3.132c-1.455,2.182-3.002,4.501-4.604,6.904c-6.061,9.845-12.294,21.375-17.725,30.373
						c2.951-0.907,1.424,1.048-0.363,3.566c-1.725,2.544-3.83,5.641-2.31,6.668c-1.47,0.719-3.157,3.206-2.769-0.272
						c-0.379,1.285-0.783,2.471-1.2,3.578c-0.396,1.115-0.752,2.171-1.143,3.157c-0.767,1.978-1.55,3.723-2.241,5.393
						c-0.667,1.677-1.343,3.248-1.629,4.949c-0.314,1.691-0.42,3.457-0.19,5.433c-1.442,0.864-0.943-2.649-1.896-1.792
						c-0.016,0.896-0.024,3.532-0.999,4.422c-0.966,0.873-0.469-1.756-0.453-3.527c-0.747,2.652-1.118,4.766-1.194,6.462
						c-0.003,1.715,0.258,3.008,0.694,4.009c0.872,2.002,2.438,2.846,3.968,3.602c-1.396,2.469-2.212,4.395-2.507,6.229
						c-0.211,1.851,0.079,3.609,0.815,5.734c-1.427,1.652-3.167,4.597-2.318-2.077c-0.224,0.92-0.679,2.786-1.237,5.072
						c-0.267,1.147-0.558,2.401-0.858,3.694c-0.232,1.304-0.448,2.654-0.643,3.979c-0.77,5.307-1.148,10.233,0.308,10.561
						c-0.803,1.108-0.647,5.232-0.405,6.239c-0.229,2.101-0.406,3.724-0.557,5.104c-0.137,1.382-0.18,2.525-0.254,3.664
						c-0.127,2.276-0.199,4.539-0.197,8.688l0.541-2.293c3.28,3.294,0.727,6.852,1.267,13.52l-0.365-0.178
						c-0.614,3.846-0.624,6.186-0.575,7.76c0.058,1.575,0.256,2.385,0.444,3.188c0.187,0.802,0.363,1.596,0.375,3.146
						c0.011,0.776-0.041,1.744-0.113,2.996c-0.035,1.249-0.117,2.786-0.261,4.715l2.127-1.082c2.476,0.42,2.181,3.76,1.617,8.131
						c-0.414,4.335-0.968,9.742,0.713,13.885c0,0,0.03-0.209,0.104-0.526c0.07-0.315,0.164-0.738,0.257-1.16
						c0.187-0.84,0.374-1.68,0.374-1.68c1.171,2.197,0.298,5.746-0.905,9.486c-1.18,3.722-2.752,7.659-2.349,10.108
						c-0.128,1.148-1.151-1.45-1.79-2.841c0.426,13.305,3.375,0.85,6.556,9.855c-0.565,1.087-1.729,0.85-2.578,1.12
						c-0.424,0.137-0.769,0.402-0.921,1.034c-0.155,0.634-0.125,1.635,0.318,3.203c-0.143,1.751,2.572,5.861,5.353,10.582
						c1.491,2.327,2.989,4.817,4.12,7.314c0.566,1.249,1.041,2.501,1.377,3.738c0.376,1.223,0.638,2.422,0.697,3.601
						c0.439-2.321,0.891-4.566,3.583-0.937c0.79,1.496,1.358,3.413,1.868,5.523c0.245,1.062,0.498,2.16,0.753,3.271
						c0.293,1.099,0.592,2.214,0.916,3.312c1.324,4.377,2.911,8.621,6.367,10.201c0.098,0.933-0.054,1.394-0.333,1.592
						c0.878,0.998,1.933,2.358,3.078,3.855c1.144,1.5,2.356,3.15,3.703,4.638c2.625,3.015,5.24,5.696,7.056,6.334
						c-1.25,2.258-0.389,4.839,1.333,7.597c1.745,2.743,4.374,5.632,7.167,8.161c1.367,1.288,2.714,2.535,3.912,3.722
						c1.203,1.184,2.23,2.328,3.08,3.319c1.651,2.021,2.189,3.776,0.576,5.135c0,0,0.669,0.744,1.672,1.86
						c1.02,1.101,2.303,2.637,3.715,4.054C77.687,448.157,80.5,451,80.5,451l-0.913,0.304c0.824,0.985,1.608,1.868,2.355,2.659
						c0.755,0.783,1.519,1.431,2.222,2.026c1.418,1.179,2.699,2.05,3.885,2.71c2.385,1.309,4.343,1.833,6.375,2.234
						c1.36,1.988-0.466,1.469-0.918,1.676c5.006,5.571,7.827,8.656,11.112,10.643c1.616,1.026,3.293,1.852,5.336,2.679
						c1.031,0.401,2.115,0.854,3.397,1.238c1.28,0.376,2.685,0.788,4.265,1.252l-0.643,3.122c0.931,0.152,2.317,1.246,4.101,2.901
						c0.877,0.85,1.915,1.749,3.036,2.756c1.129,1.002,2.352,2.087,3.641,3.229c1.303,1.131,2.685,2.313,4.152,3.464
						c1.504,1.091,3.082,2.168,4.718,3.183c1.636,1.014,3.33,1.963,5.062,2.795c1.723,0.85,3.575,1.417,5.393,1.904
						c-0.285,0.233-0.824,0.611-2.06,0.438c8.105,2.384,16.073,8.588,23.702,13.021c1.901,1.098,3.755,2.111,5.541,2.95
						c0.894,0.419,1.768,0.797,2.625,1.112c0.87,0.279,1.719,0.505,2.543,0.664c3.298,0.639,6.198,0.219,8.499-1.991
						c0,0,0.696,0.058,1.739,0.142c1.035,0.106,2.444,0.141,3.844,0.184c2.788,0.078,5.576,0.156,5.576,0.156
						c-6.572-2.379-5.69-3.408-3.835-4.295c1.863-0.884,4.678-1.641,2.258-3.319c2.656,0.406,5.733,2.18,7.377,3.719
						c0.824,0.756,1.294,1.409,1.134,1.854c-0.154,0.422-0.952,0.679-2.584,0.34l-0.853-0.845c-0.975,1.279-0.471,2.344,0.833,3.29
						c1.306,0.934,3.439,1.609,5.639,2.299c2.204,0.676,4.488,1.309,6.147,2.021c1.655,0.733,2.722,1.396,2.424,2.418
						c3.413,0.604,6.805,1.262,10.183,1.958c3.386,0.636,6.785,1.134,10.161,1.759c1.691,0.277,3.372,0.658,5.066,0.872
						c1.695,0.236,3.387,0.474,5.075,0.71c1.692,0.244,3.381,0.488,5.066,0.732c0.844,0.117,1.687,0.266,2.531,0.357l2.534,0.252
						c3.386,0.338,6.759,0.675,10.118,1.01c3.368,0.229,6.73,0.343,10.084,0.489c1.678,0.051,3.354,0.162,5.024,0.144
						c1.671-0.036,3.339-0.072,5.001-0.108c1.664-0.057,3.324-0.112,4.98-0.168c1.658-0.06,3.311-0.136,4.947-0.335
						c0,0-0.885-1.17-1.77-2.338c-0.438-0.576-0.876-1.173-1.202-1.629c-0.325-0.451-0.543-0.752-0.543-0.752
						s0.142-0.005,0.388-0.014c0.248-0.01,0.602-0.018,1.022-0.061c0.844-0.072,1.969-0.17,3.095-0.267
						c2.254-0.195,4.508-0.391,4.508-0.391c2.51,0.892,3.744,3.562-2.797,4.11c1.883,1.228,4.562,0.314,6.719-1.05
						c2.17-1.317,3.779-3.324,3.783-3.857c6.405-0.038,5.491,1.639,3.365,3.259c-2.115,1.62-5.428,3.177-3.46,2.914l5.251-1.252
						l-1.301-0.393c1.967-1.388,2.929-2.645,4.37-3.686c0.72-0.525,1.562-0.979,2.7-1.401c1.131-0.461,2.562-0.871,4.479-1.229
						c5.055-0.059,3.207,2.562,5.169,2.338c0.073,0.356,0.769,0.383,2.987-0.506c0,0,0.722-0.107,1.779-0.367
						c1.062-0.245,2.479-0.571,3.897-0.897c2.839-0.655,5.679-1.312,5.679-1.312l-5.613-2.749c2.173-1.648,4.769-2.312,6.029-2.947
						c0.633-0.313,0.911-0.669,0.646-1.079c-0.264-0.411-1.088-0.928-2.688-1.712c4.688,2.357,15.166-0.218,24.743-4.072
						c2.433-0.872,4.729-1.997,6.937-2.993c2.201-1.004,4.279-1.952,6.134-2.798c3.685-1.731,6.466-3.06,7.812-3.058
						c1.236-1.495,2.545-2.807,3.938-3.99c1.363-1.235,2.793-2.38,4.327-3.432c3.056-2.124,6.545-3.875,10.263-6.087
						c-2.312,0.378-5.926-3.116,0.543-6.522c0.82,2.484,2.081,3.511,3.688,3.683c1.602,0.169,3.564-0.477,5.614-1.498
						c2.073-0.989,4.326-2.214,6.652-3.042c1.162-0.416,2.35-0.725,3.533-0.872c1.162-0.176,2.336-0.171,3.512,0.095
						c-3.667-0.281,0.436-3.81,4.017-7.289c1.825-1.703,3.378-3.573,3.859-4.902c0.475-1.345-0.188-2.212-2.923-2.188
						c5.266-3.395,2.794,2.724,8.044,1.478c1.089-1.615,2.379-3.062,3.67-4.568c1.299-1.496,2.713-2.924,4.221-4.312
						c1.499-1.395,3.128-2.713,4.76-4.082c1.602-1.397,3.27-2.781,4.978-4.178c1.695-1.407,3.484-2.774,5.183-4.266
						c1.682-1.507,3.37-3.047,5.034-4.641c0.831-0.797,1.656-1.605,2.472-2.432l1.213-1.25l1.134-1.323
						c1.494-1.783,2.927-3.637,4.256-5.574c-0.946-1.082-4.583-0.005-3.788-4.382c0,0,0.731-0.207,1.83-0.517
						c0.551-0.158,1.193-0.344,1.882-0.541c0.673-0.217,1.391-0.448,2.106-0.68c2.9-0.957,5.802-1.915,5.802-1.915
						c0.814-1.711-0.374-3.583-0.773-5.345c-0.2-0.883-0.194-1.73,0.347-2.537c0.515-0.823,1.569-1.598,3.537-2.32
						c-1.537,0.135-3.815,0.301-2.867-1.995c3.19-3.302,6.238-6.784,8.787-10.61c1.312-1.89,2.583-3.815,3.814-5.771
						c1.222-1.96,2.267-4.025,3.357-6.067c1.074-2.053,2.119-4.125,3.144-6.209c0.933-2.128,1.836-4.271,2.733-6.421
						c0.878-2.155,1.82-4.285,2.625-6.473l2.358-6.585l1.197-3.284l0.601-1.642l0.536-1.663c0.721-2.219,1.462-4.428,2.235-6.626
						l1.188-3.29c0.414-1.092,0.73-2.214,1.119-3.313c0.746-2.21,1.539-4.408,2.391-6.596l1.313-3.274
						c0.402-1.102,0.821-2.201,1.259-3.298c0.873-2.193,1.816-4.377,2.847-6.554c1.074-2.167,2.05-4.364,3.152-6.553
						c1.104-2.188,2.305-4.371,3.617-6.558c-3.901,4.537-3.552,1.124-2.954-2.683c-1.166,2.356-3.761-0.642-5.916-0.471
						c0,0,0.145-0.22,0.352-0.61c0.214-0.394,0.519-0.953,0.885-1.627c0.736-1.359,1.717-3.174,2.698-4.986
						c0.987-1.843,1.975-3.686,2.715-5.066c0.385-0.695,0.654-1.283,0.853-1.692c0.196-0.411,0.31-0.646,0.31-0.646
						c-2.794-1.701-2.545-5.824-2.278-9.816c0.17-1.992,0.201-3.955-0.123-5.529c-0.316-1.572-0.996-2.754-2.399-3.191l0.859,4.893
						c-3.236-3.375-6.984-1.21-11.049,1.398c-4.153,2.633-8.542,5.693-12.754,4.922c1.77,1.795,1.873,3.762,1.207,5.832
						c-0.729,2.068-2.323,4.228-3.771,6.49c-0.729,1.133-1.436,2.29-2.01,3.485c-0.287,0.598-0.541,1.205-0.749,1.821
						c-0.23,0.615-0.436,1.238-0.569,1.875c-0.552,2.551-0.155,5.305,1.99,8.481c-2.065,2.019-2.308-2.514-4.421-1.623
						c3.157,3.345,3.051,6.782,0.198,12.376l-0.708-0.882c-0.177,1.056-0.361,2.071-0.554,3.051
						c-0.216,0.975-0.485,1.899-0.735,2.804c-0.513,1.803-1.05,3.482-1.61,5.084c-0.586,1.594-1.094,3.139-1.812,4.586
						c-0.689,1.457-1.404,2.876-2.144,4.298c-0.75,1.412-1.51,2.84-2.296,4.319c-0.773,1.478-1.747,2.938-2.662,4.519
						c-0.938,1.573-1.907,3.233-2.914,5.022c-0.25,0.446-0.504,0.901-0.764,1.365c-0.278,0.454-0.562,0.916-0.854,1.388
						c-0.566,0.943-1.153,1.923-1.764,2.94l4.201,0.329c-2.146,3.552-3.616,3.817-5.273,5.141c3.528,6.896,4.93-10.405,9.277-3.76
						c-2.42,0.456-4.359,2.331-6.064,4.891c-0.817,1.296-1.743,2.685-2.575,4.185c-0.847,1.493-1.669,3.065-2.491,4.622
						c-0.415,0.775-0.828,1.548-1.234,2.31c-0.435,0.747-0.902,1.461-1.358,2.155c-0.919,1.385-1.854,2.657-2.827,3.716
						c-1.944,2.117-4.001,3.389-6.428,2.955c-3.339,5.269,4.802,0.807,1.415,6.121l-2.92,0.102l1.764,3.062
						c-0.666,0.808-1.366,1.436-2.129,1.863c-0.768,0.425-1.545,0.686-2.287,0.813c-1.485,0.257-2.834-0.013-3.713-0.535
						c0.761-0.675,1.126-2.632,1.577-3.597c-2.673,1.363-4.546,4.521-6.011,7.505c-0.702,1.513-1.437,2.874-2.03,3.975
						c-0.605,1.091-1.125,1.878-1.578,2.097c0,0,1.194-0.959,2.389-1.918c0.602-0.482,1.201-0.964,1.651-1.325
						c0.459-0.354,0.734-0.617,0.733-0.617c-1.029,1.882-2.231,3.718-3.473,5.584c-0.624,0.931-1.267,1.86-1.923,2.792
						c-0.33,0.464-0.662,0.931-0.994,1.397c-0.348,0.456-0.716,0.897-1.077,1.348c-2.938,3.557-5.877,7.271-9.13,10.681
						c-1.586,1.741-3.149,3.5-4.675,5.272c-1.605,1.693-3.166,3.407-4.655,5.153c-2.91,3.566-5.854,6.91-8.21,10.604l2.078,0.479
						c-0.949,1.367-1.795,2.497-2.597,3.4c-0.825,0.875-1.576,1.563-2.281,2.123c-1.409,1.119-2.632,1.727-3.911,2.312
						c-1.293,0.567-2.589,1.189-4.294,2.157c-1.706,0.966-3.734,2.388-6.385,4.763l0.187-0.634c-1.271,3.116-4.044,5.852-7.406,7.83
						c0.975-1.817-0.963-1.702-2.764-1.699c-1.808,0.007-3.477-0.1-2.131-2.299c-0.604,0.653-1.154,1.247-1.652,1.783
						c-0.514,0.52-0.976,0.984-1.391,1.404c-0.828,0.852-1.463,1.539-1.955,2.119c-0.984,1.159-1.391,1.884-1.627,2.612
						c-0.238,0.729-0.307,1.462-0.629,2.646c-0.326,1.183-0.883,2.854-2.258,5.272l-3.195-1.445
						c-0.83,1.839-1.171,3.086-2.059,4.367c-0.896,1.268-2.303,2.662-5.473,4.443c2.205-2.298,0.691-2.756-0.743-3.346
						c-1.445-0.587-2.808-1.309-0.534-4.072c-3.989,0.199-7.012,1.208-9.525,2.549c-2.537,1.271-4.603,2.769-6.464,4.164
						c-0.934,0.688-1.821,1.338-2.7,1.878c-0.875,0.548-1.748,0.977-2.666,1.174c-1.82,0.431-3.744,0.177-6.006-1.293
						c-2.021,4.632,1.295,4.552,4.819,3.649c1.758-0.438,3.541-1.095,4.659-1.552c1.13-0.425,1.643-0.533,0.892,0.2
						c1.931,0.538,1.12,2.371-0.812,4.213c-1.956,1.755-5.064,3.419-7.447,3.85c-1.167,0.355-2.424,0.142-3.816-0.319
						c-1.392-0.459-2.951-1.271-4.688-1.954c-1.741-0.696-3.672-1.322-5.865-1.555c-1.097-0.116-2.26-0.135-3.5-0.014
						c-1.255,0.064-2.592,0.252-4.023,0.618c1.151-0.246,1.1-0.795,2.242-1.043c-2.367-0.383-4.306,0.738-6.43,1.752
						c-1.061,0.506-2.164,0.986-3.369,1.237c-1.216,0.194-2.537,0.145-4.004-0.333c-2.22,4.844-6.945,1.076-6.955,6.692
						l10.608-3.289c-2.914,1.285-5.537,3.797-8.845,5.833c-1.645,1.064-3.487,1.794-5.58,2.276
						c-2.092,0.463-4.448,0.586-7.127,0.159c0.697-1.202,3.6-3.054,5.58-4.146c-1.601-0.602-2.998-0.14-4.424,0.317
						c-1.422,0.461-2.869,0.929-4.51,0.204c0.094-1.396,0.967-2.17,2.297-2.798c1.331-0.621,3.135-0.982,5.12-1.325
						c1.983-0.347,4.154-0.659,6.188-1.232c2.02-0.665,3.906-1.556,5.328-2.904c-1.758-0.881-4.599,0.777-6.797,1.639
						c-2.199,0.853-3.656,1.146-2.438-2.037c-1.809,4.083-4.773,4.245-8.1,4.251c-3.363-0.147-7.064-0.509-10.91,2.691l0.342-3.283
						c-1.217,0.672-3.771,2.282-6.118,2.279c0,0,1.015-1.085,2.028-2.17c0.996-1.089,1.992-2.177,1.992-2.177
						c-3.108,1.912-6.266,1.248-9.316,0.398c-3.064-0.775-6.028-2.104-9.102-1.137c3.197,0.002,4.97,0.249,5.924,0.651
						c0.954,0.403,1.086,0.921,0.984,1.571c-0.198,1.279-1.362,2.895,1.413,3.963c-2.017,0.652-3.688,0.838-5.088,0.896
						c-1.401,0.045-2.533-0.109-3.484-0.402c-1.903-0.586-3.083-1.725-4.3-2.945c-1.22-1.188-2.469-2.595-4.511-3.604
						c-2.043-1.036-4.874-1.635-9.301-1.595c1.205-0.067,3.396,0.466,4.814,1.278c1.417,0.795,2.069,1.788,0.123,2.399
						c-1.668-0.45-3.601-0.955-5.325-1.748c-1.725-0.785-3.26-1.67-4.181-2.592c-5.838-0.312-5.526,0.522-4.37,1.61
						c1.149,1.088,3.16,2.441,0.512,3.104c-3.487-4.132-5.982,0.709-11.455,1.031l0.537-3.08c-1.627-0.522-2.918-0.82-3.961-0.954
						c-1.033-0.181-1.816-0.195-2.436-0.085c-1.238,0.218-1.811,0.906-2.341,1.592c-1.055,1.374-1.969,2.712-7.759,0.206
						c0,0,1.537-0.758,3.075-1.517c1.515-0.768,3.031-1.534,3.031-1.534s-1.622-0.068-3.243-0.138
						c-0.814-0.035-1.628-0.069-2.239-0.096c-0.604-0.058-1.007-0.096-1.007-0.096l2.146-3.067
						c-3.643,0.401-5.966,0.244-8.146-0.299c-1.091-0.275-2.146-0.656-3.318-1.134c-1.171-0.479-2.423-1.17-3.958-1.904
						c0.838,2.523-2.549,4.968-8.421,3.14c-3.304-3.067,3.135-1.842-5.05-4.479c1.248-0.528,2.569-1.16,3.885-1.174
						c0.659-0.01,1.313,0.146,1.966,0.531c0.664,0.359,1.321,0.962,1.972,1.903c0.692-0.809,2.431-1.21,3.113-2.012
						c-3.512-3.153-10.149-4.089-13.047-5.122c1.058,0.514,2.311,1.157,2.829,1.81c0,0-0.813-0.028-2.033-0.072
						c-1.218-0.057-2.868-0.089-4.497-0.203c-3.256-0.305-6.512-0.606-6.512-0.606c-1.333-1.797,0.471-1.979,2.225-2.171
						c-1.209-0.353-2.353-0.392-3.634-0.501c-1.278-0.116-2.715-0.259-4.412-1.001c1.909-1.737,2.766-3.959,7.943-2.996
						c0,0-0.733-0.134-1.833-0.334c-1.104-0.197-2.582-0.458-4.017-0.828c-2.909-0.695-5.818-1.391-5.818-1.391
						c-0.112-0.631-1.123-1.917-1.876-3.049c-0.766-1.113-1.211-2.19-0.357-2.196c-2.446-2.156-6.439-2.993-10.663-4.146
						c-2.067-0.643-4.197-1.344-6.208-2.261c-2.002-0.929-3.931-2.009-5.414-3.633c-0.62,0.116-1.6-0.039-3.298-0.811
						c-1.592-1.255-3.051-2.589-4.494-3.924c-1.396-1.398-2.753-2.827-4.228-4.174c-1.465-1.357-3.064-2.615-4.846-3.812
						c-1.743-1.245-3.719-2.369-6.065-3.335c0,0-0.375-1.621-0.75-3.242c-0.388-1.593-0.682-3.251-0.682-3.251
						c-3.033-2.168-2.562-0.035-2.572,1.771c-0.016,1.801-0.509,3.271-5.665-0.498c-3.728-2.603-3.759-3.77-3.013-4.66
						c0.731-0.879,2.171-1.461,1.478-2.947c-2.242-0.856-5.444-1.967-8.535-3.9c-0.386-0.241-0.771-0.495-1.15-0.763
						c-0.363-0.282-0.722-0.579-1.074-0.89c-0.705-0.622-1.382-1.303-2.016-2.046c-1.267-1.485-2.356-3.229-3.118-5.261
						C87.217,422.471,88.194,424.425,90.094,426.125z M40.455,347.386c0.543,0.777,1.479,1.892,2.175,3.019
						c0.754,1.105,1.258,2.232,0.845,3.103c-1.691-0.464-2.38-1.2-2.701-2.205C40.48,350.284,40.603,348.98,40.455,347.386z
						 M28.264,204.666c0.267,1.509-0.464,3.534-1.757,5.734C26.748,208.64,27.217,206.685,28.264,204.666z M352.906,24.442
						c-0.081-0.014-0.141-0.024-0.208-0.029C348.725,22.655,350.131,23.291,352.906,24.442z M361.172,27.963
						c0.877,0.231,0.861,0.102,0.551-0.151c-0.658-0.037-2.521-0.8-4.635-1.701C357.611,26.537,358.624,27.131,361.172,27.963z
						 M332.889,526.455l-1.979-0.479C334.657,524.14,333.757,525.249,332.889,526.455z"/>
					<path fill="#ED1C24" d="M27.5,221.488c-0.426,0.454-0.825,0.527-1.223,0.579C26.492,222.852,26.882,222.936,27.5,221.488z"/>
					<path fill="#ED1C24" d="M134.669,462.472c0.063,0.073,0.145,0.119,0.211,0.188c0.223-0.053,0.391-0.15,0.525-0.265
						L134.669,462.472z"/>
					<path fill="#ED1C24" d="M226.121,23.188c-1.783,0.162-2.803,0.128-3.496,0.026C222.584,23.523,223.429,23.62,226.121,23.188z"
						/>
					<path fill="#ED1C24" d="M404.011,48.48c0,0-0.306-0.189-0.765-0.473c-0.455-0.291-1.071-0.662-1.707-1.001
						c-1.26-0.697-2.52-1.395-2.52-1.395c2.405,1.403,3.197,2.013,4.297,2.905C403.296,48.305,402.505,47.494,404.011,48.48z"/>
					<path fill="#ED1C24" d="M440.76,81.867c0.646,0.52,1.275,1.205,1.914,1.717l0.017-0.346
						C440.128,80.81,438.2,79.271,440.76,81.867z"/>
					<path fill="#ED1C24" d="M407.206,53.353c0.032,0.367,0.823,0.995,2.032,1.792c0.604,0.398,1.312,0.838,2.083,1.312
						c0.747,0.506,1.551,1.051,2.376,1.611c-0.194-0.14-0.378-0.272-0.572-0.412c0.7,0.02,0.151-0.54-1.021-1.39
						C410.922,55.428,409.048,54.407,407.206,53.353z"/>
					<path fill="#ED1C24" d="M414.459,58.593c1.012,0.697,2.041,1.42,3,2.146C418.019,60.761,416.283,59.81,414.459,58.593z"/>
					<path fill="#ED1C24" d="M371.816,31.986c1.662,0.967,1.435-0.275,2.305,0.435c1.143,0.068-1.854-1.062-3.922-1.688
						c-1.027-0.329-1.852-0.464-1.788-0.329C368.479,30.526,369.409,30.97,371.816,31.986z"/>
					<polygon fill="#ED1C24" points="408.871,56.689 408.065,55.328 405.88,54.606 					"/>
					<path fill="#ED1C24" d="M382.046,40.509l5.545,3.097c-0.022-0.159,0.729,0.141,1.638,0.544
						C385.764,42.338,382.018,40.23,382.046,40.509z"/>
					<path fill="#ED1C24" d="M389.229,44.15c1.793,0.971,3.455,1.972,4.504,2.417C392.768,46.036,390.725,44.823,389.229,44.15z"/>
					<path fill="#ED1C24" d="M401.465,52.202c0,0-0.374-0.285-0.748-0.57c-0.372-0.289-0.755-0.561-0.754-0.561l-3.851-2.277
						c0,0,1.349,0.836,2.696,1.672C400.175,51.273,401.465,52.202,401.465,52.202z"/>
					<path fill="#ED1C24" d="M317.677,18.292l-6.876-0.953c-0.75,0.217,1.071,0.758,3.631,1.076
						C316.104,18.472,318.661,18.802,317.677,18.292z"/>
					<path fill="#ED1C24" d="M337.374,25.671c-1.735-0.684-1.804-0.919-2.731-1.5l-0.504,1.067L337.374,25.671z"/>
					<path fill="#ED1C24" d="M317.836,21.356c-0.747,0.21-9.967-0.703-1.413,0.67c0.372-0.103,2.265,0.045,3.291,0.096
						c0.511,0.039,0.808,0.032,0.595-0.087C320.1,21.906,319.379,21.676,317.836,21.356z"/>
					<polygon fill="#ED1C24" points="214.93,21.046 216.633,20.629 215.849,18.146 					"/>
					<path fill="#ED1C24" d="M135.158,62.708c7.011-3.738,0.521-2.695,7.052-5.811c0.624-0.775-0.768-0.236-2.071,0.448
						c-1.318,0.658-2.63,1.323-1.994,0.525C134.521,61.18,132.188,62.196,135.158,62.708z"/>
					<path fill="#ED1C24" d="M138.145,57.87c0.583-0.529,1.19-1.106,1.816-1.756C138.889,57.049,138.417,57.537,138.145,57.87z"/>
					<path fill="#ED1C24" d="M543.364,283.247c0,0,0.148-0.351,0.373-0.875c0.235-0.524,0.502-1.229,0.765-1.935
						c0.532-1.416,1.064-2.834,1.064-2.834l-3.203,3.562c0,0,0.272,0.52,0.51,1.038
						C543.119,282.727,543.364,283.247,543.364,283.247z"/>
					<path fill="#ED1C24" d="M537.087,272.164l5.879-1.242c0,0-1.29-0.863-2.581-1.727c-1.293-0.848-2.586-1.695-2.586-1.695
						C538.017,268.762,538.438,271.229,537.087,272.164z"/>
					<path fill="#ED1C24" d="M42.223,332.332l-0.845-0.15c-0.574,0.956-0.295,2.082,0.254,4.338L42.223,332.332z"/>
					<polygon fill="#ED1C24" points="68.294,393.548 67.714,392.552 66.278,396.015 					"/>
					<path fill="#ED1C24" d="M107.203,433.397c-0.772-0.814-1.817-1.492-2.781-2.259c-0.968-0.762-1.94-1.525-2.689-2.375
						C105.555,431.85,104.789,436.743,107.203,433.397z"/>
				</g>
			</g>
		</g>
	</g>
</g>
</svg>
